<svg width="996" height="240" viewBox="0 0 996 240" fill="none" xmlns="http://www.w3.org/2000/svg">
<rect width="240" height="240" rx="53.6741" fill="url(#paint0_linear_2111_594)"/>
<g filter="url(#filter0_d_2111_594)">
<path d="M33.9443 121.086C33.9444 74.8756 69.7314 38.0762 116.52 38.0762C129.707 38.0762 146.945 41.5045 161.017 51.2321C163.188 52.7332 163.732 55.7104 162.231 57.8819C160.73 60.0534 157.752 60.5969 155.581 59.0958C143.517 50.7564 128.332 47.6358 116.52 47.6358C75.1183 47.6358 43.504 80.0473 43.504 121.086C43.504 160.085 75.5542 193.095 116.032 193.13C132.425 192.697 144.897 188.623 153.12 183.385C161.535 178.024 164.825 171.971 164.825 167.684C164.825 166.409 164.419 165.073 163.492 163.413C162.515 161.664 161.204 159.957 159.551 157.715C156.454 153.517 152.41 147.832 152.41 139.998C152.41 133.455 155.633 128.334 160.225 125.292C162.87 123.54 165.95 122.483 169.125 122.176C168.288 113.827 168.961 107.251 170.958 102.375C173.538 96.0751 178.441 92.546 184.33 92.546C188.791 92.5461 192.446 94.059 194.804 97.356C196.862 100.234 197.407 103.822 197.66 106.687C197.793 108.199 197.858 109.784 197.924 111.254C197.991 112.766 198.06 114.199 198.191 115.599C198.457 118.437 198.952 120.73 199.901 122.533C203.661 129.677 206.842 136.723 207.195 144.104C207.564 151.797 204.861 159.17 198.404 167.006C196.725 169.043 193.712 169.333 191.675 167.655C189.638 165.976 189.348 162.963 191.026 160.926C196.356 154.459 197.876 149.341 197.647 144.561C197.403 139.472 195.168 134.065 191.441 126.985C189.628 123.54 188.981 119.78 188.673 116.49C188.517 114.827 188.441 113.176 188.374 111.679C188.305 110.14 188.248 108.787 188.137 107.526C187.901 104.844 187.475 103.542 187.028 102.917C186.88 102.71 186.495 102.106 184.33 102.106C182.892 102.106 181.143 102.73 179.805 105.997C178.333 109.592 177.609 116.052 179.349 126.5C179.613 128.084 179.065 129.694 177.889 130.786C176.714 131.879 175.068 132.309 173.508 131.931C170.706 131.252 167.714 131.799 165.504 133.262C163.406 134.652 161.97 136.871 161.97 139.998C161.97 144.402 164.133 147.823 167.244 152.04C168.694 154.006 170.487 156.334 171.838 158.751C173.238 161.258 174.384 164.222 174.384 167.684C174.384 176.6 168.038 185.217 158.256 191.447C148.294 197.794 134.032 202.228 116.219 202.688C116.178 202.689 116.136 202.69 116.095 202.69C70.2735 202.69 33.9443 165.35 33.9443 121.086Z" fill="#EEEEEE"/>
<path d="M181.655 51.092C182.419 48.7751 185.696 48.7751 186.46 51.092L187.729 54.9416C189.235 59.5129 192.821 63.0985 197.392 64.6051L201.242 65.8738C203.559 66.6374 203.559 69.9148 201.242 70.6784L197.392 71.9472C192.821 73.4537 189.235 77.0394 187.729 81.6107L186.46 85.4602C185.696 87.7771 182.419 87.7771 181.655 85.4602L180.387 81.6107C178.88 77.0394 175.294 73.4537 170.723 71.9472L166.874 70.6784C164.557 69.9148 164.557 66.6374 166.874 65.8738L170.723 64.6051C175.294 63.0985 178.88 59.5129 180.387 54.9416L181.655 51.092Z" fill="#00E75E"/>
<ellipse cx="83.1687" cy="108.335" rx="10.7634" ry="17.3205" transform="rotate(2.46958 83.1687 108.335)" fill="#EEEEEE"/>
<ellipse cx="125.316" cy="106.383" rx="11.5513" ry="18.5882" transform="rotate(2.46958 125.316 106.383)" fill="#EEEEEE"/>
</g>
<path d="M940.438 207.917C928.278 207.917 917.478 205.357 908.038 200.237C898.598 194.957 891.078 187.757 885.478 178.637C880.038 169.517 877.318 159.117 877.318 147.437C877.318 135.917 879.958 125.677 885.238 116.717C890.678 107.597 898.038 100.397 907.318 95.117C916.598 89.677 926.918 86.957 938.278 86.957C949.478 86.957 959.318 89.517 967.798 94.637C976.438 99.597 983.158 106.477 987.958 115.277C992.918 123.917 995.398 133.757 995.398 144.797C995.398 146.877 995.238 149.037 994.918 151.277C994.758 153.357 994.358 155.757 993.718 158.477L896.278 158.717V135.197L979.078 134.957L966.358 144.797C966.038 137.917 964.758 132.157 962.518 127.517C960.438 122.877 957.318 119.357 953.158 116.957C949.158 114.397 944.198 113.117 938.278 113.117C932.038 113.117 926.598 114.557 921.958 117.437C917.318 120.157 913.718 124.077 911.158 129.197C908.758 134.157 907.558 140.077 907.558 146.957C907.558 153.997 908.838 160.157 911.398 165.437C914.118 170.557 917.958 174.557 922.918 177.437C927.878 180.157 933.638 181.517 940.198 181.517C946.118 181.517 951.478 180.557 956.278 178.637C961.078 176.557 965.238 173.517 968.758 169.517L987.238 187.997C981.638 194.557 974.758 199.517 966.598 202.877C958.598 206.237 949.878 207.917 940.438 207.917Z" fill="#222222"/>
<path d="M811.569 205.519V41.3594H843.009V205.519H811.569ZM784.449 117.199V89.5994H870.129V117.199H784.449Z" fill="#222222"/>
<path d="M701.915 207.919C691.355 207.919 681.835 205.279 673.355 199.999C664.875 194.719 658.235 187.519 653.435 178.399C648.635 169.279 646.235 159.039 646.235 147.679C646.235 136.159 648.635 125.839 653.435 116.719C658.235 107.599 664.875 100.399 673.355 95.1192C681.835 89.8392 691.355 87.1992 701.915 87.1992C710.235 87.1992 717.675 88.8792 724.235 92.2392C730.795 95.5992 735.995 100.319 739.835 106.399C743.835 112.319 745.995 119.039 746.315 126.559V168.319C745.995 175.999 743.835 182.799 739.835 188.719C735.995 194.639 730.795 199.359 724.235 202.879C717.675 206.239 710.235 207.919 701.915 207.919ZM707.675 178.879C716.475 178.879 723.595 175.999 729.035 170.239C734.475 164.319 737.195 156.719 737.195 147.439C737.195 141.359 735.915 135.999 733.355 131.359C730.955 126.559 727.515 122.879 723.035 120.319C718.715 117.599 713.595 116.239 707.675 116.239C701.915 116.239 696.795 117.599 692.315 120.319C687.995 122.879 684.555 126.559 681.995 131.359C679.595 135.999 678.395 141.359 678.395 147.439C678.395 153.679 679.595 159.199 681.995 163.999C684.555 168.639 687.995 172.319 692.315 175.039C696.795 177.599 701.915 178.879 707.675 178.879ZM735.515 205.519V174.319L740.555 145.999L735.515 118.159V89.5992H766.715V205.519H735.515Z" fill="#222222"/>
<path d="M596.67 205.519V139.039C596.67 132.159 594.51 126.559 590.19 122.239C585.87 117.919 580.27 115.759 573.39 115.759C568.91 115.759 564.91 116.719 561.39 118.639C557.87 120.559 555.07 123.279 552.99 126.799C551.07 130.319 550.11 134.399 550.11 139.039L537.87 132.799C537.87 123.679 539.79 115.759 543.63 109.039C547.63 102.159 553.07 96.7992 559.95 92.9592C566.99 89.1192 574.91 87.1992 583.71 87.1992C592.19 87.1992 599.79 89.3592 606.51 93.6792C613.23 97.8392 618.51 103.359 622.35 110.239C626.19 116.959 628.11 124.239 628.11 132.079V205.519H596.67ZM518.67 205.519V89.5992H550.11V205.519H518.67Z" fill="#222222"/>
<path d="M461.904 205.519V139.039C461.904 132.159 459.744 126.559 455.424 122.239C451.104 117.919 445.504 115.759 438.624 115.759C434.144 115.759 430.144 116.719 426.624 118.639C423.104 120.559 420.304 123.279 418.224 126.799C416.304 130.319 415.344 134.399 415.344 139.039L403.104 132.799C403.104 123.679 405.024 115.759 408.864 109.039C412.864 102.159 418.304 96.7992 425.184 92.9592C432.224 89.1192 440.144 87.1992 448.944 87.1992C457.424 87.1992 465.024 89.3592 471.744 93.6792C478.464 97.8392 483.744 103.359 487.584 110.239C491.424 116.959 493.344 124.239 493.344 132.079V205.519H461.904ZM383.904 205.519V89.5992H415.344V205.519H383.904Z" fill="#222222"/>
<path d="M320 205.517V36.7969H352.64V205.517H320Z" fill="#222222"/>
<defs>
<filter id="filter0_d_2111_594" x="24.7136" y="38.0762" width="191.746" height="183.077" filterUnits="userSpaceOnUse" color-interpolation-filters="sRGB">
<feFlood flood-opacity="0" result="BackgroundImageFix"/>
<feColorMatrix in="SourceAlpha" type="matrix" values="0 0 0 0 0 0 0 0 0 0 0 0 0 0 0 0 0 0 127 0" result="hardAlpha"/>
<feOffset dy="9.23077"/>
<feGaussianBlur stdDeviation="4.61538"/>
<feComposite in2="hardAlpha" operator="out"/>
<feColorMatrix type="matrix" values="0 0 0 0 0 0 0 0 0 0 0 0 0 0 0 0 0 0 0.2 0"/>
<feBlend mode="normal" in2="BackgroundImageFix" result="effect1_dropShadow_2111_594"/>
<feBlend mode="normal" in="SourceGraphic" in2="effect1_dropShadow_2111_594" result="shape"/>
</filter>
<linearGradient id="paint0_linear_2111_594" x1="120" y1="0" x2="120" y2="240" gradientUnits="userSpaceOnUse">
<stop stop-color="#333333"/>
<stop offset="1" stop-color="#181818"/>
</linearGradient>
</defs>
</svg>
